<?xml version="1.0" encoding="UTF-8"?><svg id="Layer_1" xmlns="http://www.w3.org/2000/svg" viewBox="0 0 48 48"><defs><style>.cls-1{fill:#bdbd41;}</style></defs><path class="cls-1" d="M42,0H6C2.69,0,0,2.69,0,6V42c0,3.31,2.69,6,6,6H42c3.31,0,6-2.69,6-6V6c0-3.31-2.69-6-6-6ZM2.4,6c0-1.99,1.61-3.6,3.6-3.6H42c1.99,0,3.6,1.61,3.6,3.6V42c0,1.99-1.61,3.6-3.6,3.6H6c-1.99,0-3.6-1.61-3.6-3.6V6Z"/><path class="cls-1" d="M14,31.43c3.96,.54,7.92,1.08,11.94,1.62V15.74c-2.82,.67-5.62,1.34-8.48,2.02,0,.29,0,.56,0,.83,0,3.44,0,6.89,.01,10.33,0,.46-.11,.71-.57,.88-1.26,.45-2.5,.97-3.82,1.48-.02-.22-.06-.4-.06-.58,0-4.42,0-8.83-.02-13.25,0-.52,.17-.74,.63-.91,3.95-1.46,7.88-2.94,11.82-4.41,.24-.09,.54-.18,.78-.11,2.3,.64,4.6,1.3,6.93,1.97,.01,.24,.03,.46,.03,.68,0,6.24,0,12.48,.01,18.71,0,.54-.15,.77-.69,.91-2.02,.52-4.03,1.11-6.05,1.65-.27,.07-.61,.08-.87-.02-3.88-1.42-7.75-2.85-11.62-4.29,0-.07,.01-.14,.02-.21Z"/></svg>